{
	"asset":{
		"generator":"Khronos glTF Blender I/O v4.3.47",
		"version":"2.0"
	},
	"extensionsUsed":[
		"KHR_materials_specular"
	],
	"scene":0,
	"scenes":[
		{
			"name":"Scene",
			"nodes":[
				0
			]
		}
	],
	"nodes":[
		{
			"mesh":0,
			"name":"sm_1_0_0"
		}
	],
	"materials":[
		{
			"doubleSided":true,
			"extensions":{
				"KHR_materials_specular":{
					"specularFactor":0
				}
			},
			"name":"Material",
			"pbrMetallicRoughness":{
				"baseColorTexture":{
					"index":0
				},
				"metallicFactor":0
			}
		}
	],
	"meshes":[
		{
			"name":"sm_1_0_0_mesh0000",
			"primitives":[
				{
					"attributes":{
						"POSITION":0,
						"NORMAL":1,
						"TEXCOORD_0":2,
						"TEXCOORD_1":3,
						"COLOR_0":4,
						"COLOR_1":5
					},
					"indices":6,
					"material":0
				}
			]
		}
	],
	"textures":[
		{
			"sampler":0,
			"source":0
		}
	],
	"images":[
		{
			"mimeType":"image/png",
			"name":"Crow",
			"uri":"Crow.png"
		}
	],
	"accessors":[
		{
			"bufferView":0,
			"componentType":5126,
			"count":4398,
			"max":[
				0.49292001128196716,
				0.22300833463668823,
				0.19958500564098358
			],
			"min":[
				-0.49292001128196716,
				-0.004286669194698334,
				-0.23120099306106567
			],
			"type":"VEC3"
		},
		{
			"bufferView":1,
			"componentType":5126,
			"count":4398,
			"type":"VEC3"
		},
		{
			"bufferView":2,
			"componentType":5126,
			"count":4398,
			"type":"VEC2"
		},
		{
			"bufferView":3,
			"componentType":5126,
			"count":4398,
			"type":"VEC2"
		},
		{
			"bufferView":4,
			"componentType":5121,
			"count":4398,
			"normalized":true,
			"type":"VEC4"
		},
		{
			"bufferView":5,
			"componentType":5123,
			"count":4398,
			"normalized":true,
			"type":"VEC4"
		},
		{
			"bufferView":6,
			"componentType":5123,
			"count":22731,
			"type":"SCALAR"
		}
	],
	"bufferViews":[
		{
			"buffer":0,
			"byteLength":52776,
			"byteOffset":0,
			"target":34962
		},
		{
			"buffer":0,
			"byteLength":52776,
			"byteOffset":52776,
			"target":34962
		},
		{
			"buffer":0,
			"byteLength":35184,
			"byteOffset":105552,
			"target":34962
		},
		{
			"buffer":0,
			"byteLength":35184,
			"byteOffset":140736,
			"target":34962
		},
		{
			"buffer":0,
			"byteLength":17592,
			"byteOffset":175920,
			"target":34962
		},
		{
			"buffer":0,
			"byteLength":35184,
			"byteOffset":193512,
			"target":34962
		},
		{
			"buffer":0,
			"byteLength":45462,
			"byteOffset":228696,
			"target":34963
		}
	],
	"samplers":[
		{
			"magFilter":9729,
			"minFilter":9987
		}
	],
	"buffers":[
		{
			"byteLength":274160,
			"uri":"Crow.bin"
		}
	]
}
