{
	"asset":{
		"generator":"Khronos glTF Blender I/O v4.3.47",
		"version":"2.0"
	},
	"extensionsUsed":[
		"KHR_materials_specular"
	],
	"scene":0,
	"scenes":[
		{
			"name":"Scene",
			"nodes":[
				0
			]
		}
	],
	"nodes":[
		{
			"mesh":0,
			"name":"sm_1_0_0"
		}
	],
	"materials":[
		{
			"doubleSided":true,
			"extensions":{
				"KHR_materials_specular":{
					"specularFactor":0
				}
			},
			"name":"Material",
			"pbrMetallicRoughness":{
				"baseColorTexture":{
					"index":0
				},
				"metallicFactor":0
			}
		}
	],
	"meshes":[
		{
			"name":"sm_1_0_0_mesh0000",
			"primitives":[
				{
					"attributes":{
						"POSITION":0,
						"NORMAL":1,
						"TEXCOORD_0":2,
						"TEXCOORD_1":3,
						"COLOR_0":4,
						"COLOR_1":5
					},
					"indices":6,
					"material":0
				}
			]
		}
	],
	"textures":[
		{
			"sampler":0,
			"source":0
		}
	],
	"images":[
		{
			"mimeType":"image/png",
			"name":"Eagle",
			"uri":"Eagle.png"
		}
	],
	"accessors":[
		{
			"bufferView":0,
			"componentType":5126,
			"count":4945,
			"max":[
				1.155884027481079,
				0.4885597825050354,
				0.4266360104084015
			],
			"min":[
				-1.155884027481079,
				-0.019496232271194458,
				-0.5273439884185791
			],
			"type":"VEC3"
		},
		{
			"bufferView":1,
			"componentType":5126,
			"count":4945,
			"type":"VEC3"
		},
		{
			"bufferView":2,
			"componentType":5126,
			"count":4945,
			"type":"VEC2"
		},
		{
			"bufferView":3,
			"componentType":5126,
			"count":4945,
			"type":"VEC2"
		},
		{
			"bufferView":4,
			"componentType":5121,
			"count":4945,
			"normalized":true,
			"type":"VEC4"
		},
		{
			"bufferView":5,
			"componentType":5123,
			"count":4945,
			"normalized":true,
			"type":"VEC4"
		},
		{
			"bufferView":6,
			"componentType":5123,
			"count":19332,
			"type":"SCALAR"
		}
	],
	"bufferViews":[
		{
			"buffer":0,
			"byteLength":59340,
			"byteOffset":0,
			"target":34962
		},
		{
			"buffer":0,
			"byteLength":59340,
			"byteOffset":59340,
			"target":34962
		},
		{
			"buffer":0,
			"byteLength":39560,
			"byteOffset":118680,
			"target":34962
		},
		{
			"buffer":0,
			"byteLength":39560,
			"byteOffset":158240,
			"target":34962
		},
		{
			"buffer":0,
			"byteLength":19780,
			"byteOffset":197800,
			"target":34962
		},
		{
			"buffer":0,
			"byteLength":39560,
			"byteOffset":217580,
			"target":34962
		},
		{
			"buffer":0,
			"byteLength":38664,
			"byteOffset":257140,
			"target":34963
		}
	],
	"samplers":[
		{
			"magFilter":9729,
			"minFilter":9987
		}
	],
	"buffers":[
		{
			"byteLength":295804,
			"uri":"Eagle.bin"
		}
	]
}
