{
	"asset":{
		"generator":"Khronos glTF Blender I/O v4.3.47",
		"version":"2.0"
	},
	"extensionsUsed":[
		"KHR_materials_specular"
	],
	"scene":0,
	"scenes":[
		{
			"name":"Scene",
			"nodes":[
				0
			]
		}
	],
	"nodes":[
		{
			"mesh":0,
			"name":"sm_1_0_0",
			"translation":[
				0,
				0.24421443045139313,
				0
			]
		}
	],
	"materials":[
		{
			"doubleSided":true,
			"extensions":{
				"KHR_materials_specular":{
					"specularFactor":0
				}
			},
			"name":"Material",
			"pbrMetallicRoughness":{
				"baseColorTexture":{
					"index":0
				},
				"metallicFactor":0,
				"roughnessFactor":0.9862385392189026
			}
		}
	],
	"meshes":[
		{
			"name":"sm_1_0_0_mesh0000",
			"primitives":[
				{
					"attributes":{
						"POSITION":0,
						"NORMAL":1,
						"TEXCOORD_0":2,
						"TEXCOORD_1":3,
						"COLOR_0":4,
						"COLOR_1":5
					},
					"indices":6,
					"material":0
				}
			]
		}
	],
	"textures":[
		{
			"sampler":0,
			"source":0
		}
	],
	"images":[
		{
			"mimeType":"image/png",
			"name":"Hawk",
			"uri":"Hawk.png"
		}
	],
	"accessors":[
		{
			"bufferView":0,
			"componentType":5126,
			"count":3749,
			"max":[
				0.892333984375,
				0.15685999393463135,
				0.3758549988269806
			],
			"min":[
				-0.892333984375,
				-0.25463899970054626,
				-0.33532699942588806
			],
			"type":"VEC3"
		},
		{
			"bufferView":1,
			"componentType":5126,
			"count":3749,
			"type":"VEC3"
		},
		{
			"bufferView":2,
			"componentType":5126,
			"count":3749,
			"type":"VEC2"
		},
		{
			"bufferView":3,
			"componentType":5126,
			"count":3749,
			"type":"VEC2"
		},
		{
			"bufferView":4,
			"componentType":5121,
			"count":3749,
			"normalized":true,
			"type":"VEC4"
		},
		{
			"bufferView":5,
			"componentType":5123,
			"count":3749,
			"normalized":true,
			"type":"VEC4"
		},
		{
			"bufferView":6,
			"componentType":5123,
			"count":14502,
			"type":"SCALAR"
		}
	],
	"bufferViews":[
		{
			"buffer":0,
			"byteLength":44988,
			"byteOffset":0,
			"target":34962
		},
		{
			"buffer":0,
			"byteLength":44988,
			"byteOffset":44988,
			"target":34962
		},
		{
			"buffer":0,
			"byteLength":29992,
			"byteOffset":89976,
			"target":34962
		},
		{
			"buffer":0,
			"byteLength":29992,
			"byteOffset":119968,
			"target":34962
		},
		{
			"buffer":0,
			"byteLength":14996,
			"byteOffset":149960,
			"target":34962
		},
		{
			"buffer":0,
			"byteLength":29992,
			"byteOffset":164956,
			"target":34962
		},
		{
			"buffer":0,
			"byteLength":29004,
			"byteOffset":194948,
			"target":34963
		}
	],
	"samplers":[
		{
			"magFilter":9729,
			"minFilter":9987
		}
	],
	"buffers":[
		{
			"byteLength":223952,
			"uri":"Hawk.bin"
		}
	]
}
