{
	"asset":{
		"generator":"Khronos glTF Blender I/O v4.3.47",
		"version":"2.0"
	},
	"extensionsUsed":[
		"KHR_materials_specular"
	],
	"scene":0,
	"scenes":[
		{
			"name":"Scene",
			"nodes":[
				0
			]
		}
	],
	"nodes":[
		{
			"mesh":0,
			"name":"sm_1_0_0"
		}
	],
	"materials":[
		{
			"doubleSided":true,
			"extensions":{
				"KHR_materials_specular":{
					"specularFactor":0
				}
			},
			"name":"Material",
			"pbrMetallicRoughness":{
				"baseColorTexture":{
					"index":0
				},
				"metallicFactor":0
			}
		}
	],
	"meshes":[
		{
			"name":"sm_1_0_0_mesh0000",
			"primitives":[
				{
					"attributes":{
						"POSITION":0,
						"NORMAL":1,
						"TEXCOORD_0":2,
						"TEXCOORD_1":3,
						"COLOR_0":4,
						"COLOR_1":5
					},
					"indices":6,
					"material":0
				}
			]
		}
	],
	"textures":[
		{
			"sampler":0,
			"source":0
		}
	],
	"images":[
		{
			"mimeType":"image/png",
			"name":"Owl",
			"uri":"Owl.png"
		}
	],
	"accessors":[
		{
			"bufferView":0,
			"componentType":5126,
			"count":5357,
			"max":[
				1.1437989473342896,
				0.5553947687149048,
				0.3762210011482239
			],
			"min":[
				-1.1437989473342896,
				-0.02370622754096985,
				-0.5131840109825134
			],
			"type":"VEC3"
		},
		{
			"bufferView":1,
			"componentType":5126,
			"count":5357,
			"type":"VEC3"
		},
		{
			"bufferView":2,
			"componentType":5126,
			"count":5357,
			"type":"VEC2"
		},
		{
			"bufferView":3,
			"componentType":5126,
			"count":5357,
			"type":"VEC2"
		},
		{
			"bufferView":4,
			"componentType":5121,
			"count":5357,
			"normalized":true,
			"type":"VEC4"
		},
		{
			"bufferView":5,
			"componentType":5123,
			"count":5357,
			"normalized":true,
			"type":"VEC4"
		},
		{
			"bufferView":6,
			"componentType":5123,
			"count":20832,
			"type":"SCALAR"
		}
	],
	"bufferViews":[
		{
			"buffer":0,
			"byteLength":64284,
			"byteOffset":0,
			"target":34962
		},
		{
			"buffer":0,
			"byteLength":64284,
			"byteOffset":64284,
			"target":34962
		},
		{
			"buffer":0,
			"byteLength":42856,
			"byteOffset":128568,
			"target":34962
		},
		{
			"buffer":0,
			"byteLength":42856,
			"byteOffset":171424,
			"target":34962
		},
		{
			"buffer":0,
			"byteLength":21428,
			"byteOffset":214280,
			"target":34962
		},
		{
			"buffer":0,
			"byteLength":42856,
			"byteOffset":235708,
			"target":34962
		},
		{
			"buffer":0,
			"byteLength":41664,
			"byteOffset":278564,
			"target":34963
		}
	],
	"samplers":[
		{
			"magFilter":9729,
			"minFilter":9987
		}
	],
	"buffers":[
		{
			"byteLength":320228,
			"uri":"Owl.bin"
		}
	]
}
